<?xml version="1.0" encoding="UTF-8"?>
<svg id="Layer_2" data-name="Layer 2" xmlns="http://www.w3.org/2000/svg" viewBox="0 0 500 479.55">
  <defs>
    <style>
      .cls-1 {
        fill: #74ff82;
        stroke-width: 0px;
      }
    </style>
  </defs>
  <g id="Layer_2-2" data-name="Layer 2">
    <g>
      <polygon class="cls-1" points="159.75 211.01 141.71 192.97 0 192.97 0 266.87 52.39 398.05 143.49 479.55 159.75 445.26 159.75 211.01"/>
      <polygon class="cls-1" points="177.78 201.94 195.82 192.97 237.68 121.97 254.82 44.25 268.91 0 307.6 0 332 40.39 334.34 122.65 321.86 174.94 461.74 174.94 486.39 182.34 500 200.11 500 221.53 481.83 239.93 448.33 246.78 466.91 253.07 481.5 270.57 481.5 294.66 462.36 312.58 430.06 318.92 450.66 326.5 463.59 342.99 463.59 365.96 445.26 384.27 412.03 391.05 432.28 398.38 445.93 416.05 445.93 437.81 427.44 456.3 397.84 463.12 195.82 463.19 177.78 454.22 177.78 201.94"/>
    </g>
  </g>
</svg>