<?xml version="1.0" encoding="UTF-8"?>
<svg id="uuid-44dc52d2-460d-419c-9678-47db99d8d159" data-name="Layer 2" xmlns="http://www.w3.org/2000/svg" viewBox="0 0 500 479.55">
  <defs>
    <style>
      .uuid-d445ed9c-4f8c-4282-960d-a0360971d026 {
        fill: #74ff82;
        stroke-width: 0px;
      }
    </style>
  </defs>
  <g id="uuid-80144ca8-6b48-4d82-9d94-3597bdf45ee4" data-name="Layer 3">
    <g>
      <path class="uuid-d445ed9c-4f8c-4282-960d-a0360971d026" d="m131.36,217.97l3.39,3.39v216.83l-61.32-54.85-48.43-121.27v-44.09h106.36m10.36-25H0v73.9l52.39,131.19,91.1,81.5,16.26-34.29v-234.25l-18.03-18.03h0Z"/>
      <path class="uuid-d445ed9c-4f8c-4282-960d-a0360971d026" d="m293.49,25l13.71,22.68,2.06,72.38-11.72,49.07-7.36,30.81h167.88l13.4,4.02,3.54,4.62v2.68l-5.62,5.69-26.06,5.33-90.59,18.52,87.58,29.65,11.91,4.03,4.28,5.13v4.19l-5.99,5.61-25.25,4.95-87.52,17.17,83.69,30.82,13.94,5.13,3.23,4.12v3.97l-5.68,5.67-25.88,5.29-87.05,17.78,83.55,30.22,13.41,4.85,3.99,5.16v2.88l-6.09,6.09-19.85,4.57-192.21.07v-220.76l4.17-2.07,6.64-3.3,3.77-6.39,41.86-71.01,2.02-3.43.86-3.88,16.9-76.61,8.2-25.75h6.3m14.1-25h-38.69l-14.09,44.25-17.15,77.72-41.86,71.01-18.03,8.97v252.28l18.03,8.97,202.03-.07,29.6-6.82,18.48-18.48v-21.76l-13.64-17.67-20.25-7.33,33.23-6.79,18.33-18.3v-22.97l-12.93-16.49-20.59-7.59,32.29-6.33,19.14-17.92v-24.09l-14.59-17.5-18.59-6.29,33.5-6.85,18.17-18.4v-21.42l-13.61-17.77-24.66-7.41h-139.88l12.48-52.28-2.34-82.26L307.6,0h0Z"/>
    </g>
  </g>
</svg>