<?xml version="1.0" encoding="utf-8"?>
<!-- Generator: Adobe Illustrator 28.0.0, SVG Export Plug-In . SVG Version: 6.00 Build 0)  -->
<svg version="1.1" id="Layer_1" xmlns="http://www.w3.org/2000/svg" xmlns:xlink="http://www.w3.org/1999/xlink" x="0px" y="0px"
	 viewBox="0 0 500 500" style="enable-background:new 0 0 500 500;" xml:space="preserve">
<polygon points="7.1,492.9 38.8,500 70.7,482.4 272.9,280.2 236.5,263.5 219.8,227.1 17.6,429.3 0,461.2 "/>
<path d="M457.5,42.5L384,0h-84.9l-73.5,42.5L183.1,116v84.9l42.5,73.5l73.5,42.5H384l73.5-42.5l42.5-73.5V116L457.5,42.5z
	 M451.3,187.9l-29.4,51l-51,29.4h-58.8l-51-29.4l-29.4-51V129l29.4-51l51-29.4H371l51,29.4l29.4,51V187.9z"/>
</svg>
