<?xml version="1.0" encoding="UTF-8"?>
<svg xmlns="http://www.w3.org/2000/svg" viewBox="0 0 500 340">
  <defs>
    <style>
      .uuid-53f00711-1ff0-499c-b19e-4c83f9b02f00,
      .uuid-12bf3de6-0d10-4d29-a56d-b7ef62a5418d {
        stroke-width: 0px;
      }

      .uuid-12bf3de6-0d10-4d29-a56d-b7ef62a5418d {
        fill: #000000;
      }
    </style>
  </defs>
  <g id="uuid-f3d9a651-0099-40ff-9a43-81d174d924b4" data-name="Layer 1">
    <path class="uuid-12bf3de6-0d10-4d29-a56d-b7ef62a5418d"
      d="m380,105V35L290,0H90L0,35v270l90,35h200l90-35v-70l120,60V45l-120,60Zm-50,165l-65,27H115l-65-27V70l65-27h150l65,27v200Zm129.24-35.49l-78.93-39.47v-50.09l78.93-39.47v129.02Z" />
  </g>
  <g id="uuid-1128e029-1500-47c1-927d-30945f69b5da" data-name="Layer 2">
    <polygon class="uuid-53f00711-1ff0-499c-b19e-4c83f9b02f00"
      points="130.16 241.14 116.49 228.53 116.49 197.86 107.41 193.15 98.33 197.86 98.33 236.81 121.51 259.31 258.49 259.31 281.67 236.81 281.67 197.86 272.59 193.15 263.51 197.86 263.51 228.53 249.84 241.14 130.16 241.14" />
    <polygon class="uuid-53f00711-1ff0-499c-b19e-4c83f9b02f00"
      points="194.43 71.76 246.4 138.3 242.78 148.5 231.3 148.5 199.08 107.23 199.08 218.35 190 223.03 180.92 218.35 180.92 107.23 148.7 148.5 137.22 148.5 133.6 138.3 185.57 71.76 194.43 71.76" />
  </g>
</svg>