<?xml version="1.0" encoding="UTF-8"?>
<svg id="Layer_2" data-name="Layer 2" xmlns="http://www.w3.org/2000/svg" viewBox="0 0 500 500">
  <defs>
    <style>
      .cls-1 {
        fill: #000000;
        stroke-width: 0px;
      }
    </style>
  </defs>
  <g id="Layer_1_copy" data-name="Layer 1 copy">
    <path class="cls-1"
      d="m435.25,298.49l64.75-23.03v-50.93l-64.75-23.03v-28.69l-19.82-19.82,29.56-62.18-35.8-35.8-62.18,29.56-19.82-19.82h-28.69L275.47,0h-50.93l-23.03,64.75h-28.69l-19.82,19.82-62.18-29.56-35.8,35.8,29.56,62.18-19.82,19.82v28.69L0,224.53v50.93l64.75,23.03v28.69l19.82,19.82-29.56,62.18,35.8,35.8,62.18-29.56,19.82,19.82h28.69l23.03,64.75h50.93l23.03-64.75h28.69l19.82-19.82,62.18,29.56,35.8-35.8-29.56-62.18,19.82-19.82v-28.69Zm-130.75-179.28l76.29,76.29v46.78h-95.63v-6.93l-20.51-20.51h-21.16l-20.47-49.4-19.15-46.22h100.63Zm-61.11,146.66l-9.26-9.26v-13.22l9.26-9.26h13.22l9.26,9.26v13.22l-9.26,9.26h-13.22Zm-124.18,38.63v-108.99l70.39-70.39,19.16,46.23,20.53,49.55-14.46,14.46v29.3l14.6,14.6-20.72,50.01-18.97,45.77-70.54-70.54Zm185.28,76.29h-100.42l18.9-45.61,20.72-50.01h20.95l20.51-20.51v-6.93h95.63v46.78l-76.29,76.29Z" />
  </g>
</svg>